<?xml version="1.0" encoding="UTF-8"?>
<svg xmlns="http://www.w3.org/2000/svg" xmlns:xlink="http://www.w3.org/1999/xlink" width="px" height="px" viewBox="0 0 11 10" version="1.1">
<g id="surface1">
<path style=" stroke:none;fill-rule:nonzero;fill:rgb(0%,0%,0%);fill-opacity:1;" d="M 10.148438 5.152344 C 11.285156 3.96875 11.285156 2.054688 10.148438 0.886719 C 9.015625 -0.296875 7.175781 -0.296875 6.039062 0.886719 L 5.488281 1.46875 L 4.941406 0.898438 C 3.804688 -0.292969 1.964844 -0.292969 0.84375 0.886719 C 0.296875 1.449219 -0.00390625 2.21875 0 3.023438 C 0 3.824219 0.304688 4.59375 0.84375 5.160156 L 5.488281 10 Z M 0.71875 3.023438 C 0.71875 2.414062 0.941406 1.855469 1.359375 1.433594 C 1.761719 1.007812 2.3125 0.769531 2.886719 0.769531 C 3.433594 0.769531 3.984375 0.992188 4.414062 1.433594 L 5.488281 2.542969 L 6.566406 1.421875 C 7.410156 0.546875 8.789062 0.546875 9.621094 1.421875 C 10.027344 1.84375 10.261719 2.402344 10.261719 3.011719 C 10.261719 3.621094 10.035156 4.179688 9.621094 4.601562 L 5.488281 8.914062 L 1.359375 4.613281 C 0.953125 4.179688 0.71875 3.621094 0.71875 3.023438 Z M 0.71875 3.023438 "/>
</g>
</svg>
